<svg width="162" height="32" viewBox="0 0 162 32" fill="none" xmlns="http://www.w3.org/2000/svg">
<g clip-path="url(#clip0_2210_2999)">
<path d="M18.5872 1.84647V4.76848L1.52188 7.8173C1.37603 7.84126 1.23429 7.88567 1.10083 7.9492L15.8935 0.212992C16.1742 0.0664124 16.488 -0.00527778 16.8046 0.00484775C17.1212 0.0149733 17.4297 0.106572 17.7006 0.270794C17.9714 0.435017 18.1953 0.66631 18.3506 0.942328C18.5059 1.21835 18.5874 1.52976 18.5872 1.84647Z" fill="#22B0FF"/>
<path d="M18.5872 4.76855V20.5606C18.5916 21.3404 18.3815 22.1063 17.9797 22.7747C17.578 23.4431 17.0002 23.9881 16.3095 24.35L1.65887 31.9949C1.2041 31.9485 0.782732 31.735 0.476303 31.3957C0.169873 31.0565 0.000167076 30.6157 2.31222e-05 30.1585V9.63856C-0.00156224 9.32304 0.0784027 9.01245 0.232165 8.73693C0.385928 8.4614 0.608271 8.23027 0.877639 8.06595L1.05519 7.96957H1.10085C1.23322 7.89902 1.37501 7.84777 1.5219 7.81738L18.5872 4.76855Z" fill="#006DAA"/>
<path d="M27.475 5.38232V23.8934C27.474 24.8913 27.1224 25.8571 26.4817 26.622C25.8409 27.387 24.9518 27.9026 23.9696 28.0786L2.17123 31.9594C2.00286 31.9815 1.83231 31.9815 1.66394 31.9594L16.3095 24.35C16.9963 23.99 17.5717 23.449 17.9732 22.7855C18.3746 22.122 18.587 21.3614 18.5872 20.5859V4.76849L25.3038 3.55099C25.5707 3.50331 25.8448 3.515 26.1067 3.58521C26.3686 3.65543 26.6118 3.78245 26.819 3.95726C27.0263 4.13207 27.1925 4.35037 27.3059 4.59667C27.4192 4.84296 27.477 5.11119 27.475 5.38232Z" fill="#0098FF"/>
<path fill-rule="evenodd" clip-rule="evenodd" d="M42.0596 5.86938H38.2245L45.6056 26.0596H49.2987L56.6798 5.86938H52.8447L47.4521 21.3621L42.0596 5.86938ZM54.6912 22.4274C55.2767 23.5766 56.1641 24.5446 57.2581 25.2277C58.4449 25.9638 59.8186 26.3424 61.215 26.3183C62.8475 26.3695 64.4516 25.8829 65.7806 24.9334C66.3858 24.4993 66.8988 23.9493 67.2899 23.3153C67.6809 22.6814 67.9421 21.9761 68.0584 21.2403H64.5986C64.4322 21.8975 64.02 22.4658 63.4471 22.8282C62.7756 23.2251 62.0048 23.4222 61.2251 23.3963C60.7221 23.4158 60.2203 23.3338 59.7496 23.1551C59.279 22.9764 58.8491 22.7048 58.4858 22.3564C57.7433 21.6056 57.2935 20.6143 57.2175 19.5612H67.9468C68.0026 19.1757 68.0026 18.7698 68.0026 18.3488C68.0086 17.1647 67.743 15.995 67.2264 14.9296C66.6967 13.8535 65.8691 12.952 64.8421 12.3323C63.6615 11.6332 62.3076 11.2816 60.936 11.3177C59.5663 11.2698 58.2123 11.6224 57.04 12.3323C55.9923 12.9936 55.1533 13.9381 54.6202 15.0565C54.0775 16.2059 53.8018 17.4632 53.8136 18.7343C53.8056 20.0179 54.1066 21.2846 54.6912 22.4274ZM63.4014 14.8434C64.0349 15.4603 64.4118 16.2938 64.4566 17.1769H57.3038C57.6656 15.0226 58.8764 13.9455 60.936 13.9455C61.3858 13.9252 61.8353 13.994 62.2584 14.1481C62.6815 14.3022 63.07 14.5385 63.4014 14.8434ZM73.527 15.7514C72.9731 16.8118 72.7138 18.0013 72.7762 19.196V26.0596H69.2251V11.5257H72.7762V14.0926C73.0419 13.3049 73.5386 12.6155 74.2017 12.1142C74.8905 11.6945 75.6888 11.4896 76.4946 11.5257H78.1991V14.4934H75.9214C75.445 14.4612 74.969 14.5617 74.5463 14.7838C74.1236 15.0059 73.7707 15.3409 73.527 15.7514ZM79.2594 24.1725C79.6672 24.8419 80.2565 25.3819 80.9588 25.7299C81.74 26.1173 82.6032 26.3105 83.475 26.293C84.4285 26.3131 85.3713 26.0896 86.2144 25.6436C86.9448 25.2754 87.5177 24.6557 87.8275 23.8985V26.0596H91.3482V16.7153C91.3685 15.7112 91.0933 14.7234 90.5568 13.8744C90.0083 13.0395 89.2319 12.3793 88.3196 11.9721C87.2878 11.5048 86.1649 11.2726 85.0324 11.2923C83.9129 11.2735 82.8035 11.5058 81.7857 11.9721C80.8904 12.3777 80.1198 13.0152 79.5536 13.8186C79.0154 14.5882 78.6963 15.4894 78.6303 16.4261H81.8415C81.8576 16.0879 81.944 15.7567 82.0951 15.4536C82.2462 15.1506 82.4587 14.8823 82.7191 14.6658C83.3323 14.1645 84.1093 13.9079 84.9005 13.9455C85.6773 13.9 86.4445 14.1359 87.0615 14.61C87.3157 14.8256 87.5176 15.096 87.6521 15.4009C87.7865 15.7058 87.85 16.0373 87.8377 16.3703C87.8481 16.6303 87.755 16.8839 87.579 17.0755C87.4759 17.1728 87.3536 17.2475 87.2199 17.2947C87.0862 17.3419 86.9441 17.3605 86.8028 17.3494H84.1192C82.6909 17.2769 81.2838 17.7178 80.1522 18.5923C79.6618 18.9966 79.2712 19.5085 79.0108 20.0883C78.7504 20.6681 78.6271 21.3002 78.6506 21.9353C78.6399 22.7233 78.8509 23.4985 79.2594 24.1725ZM84.3069 23.655C83.7239 23.6876 83.1488 23.5074 82.6887 23.1477C82.4952 22.9842 82.3407 22.7796 82.2363 22.5488C82.1318 22.318 82.0802 22.0668 82.085 21.8136C82.0742 21.5248 82.1299 21.2374 82.2478 20.9735C82.3656 20.7097 82.5425 20.4764 82.7648 20.2917C83.2724 19.8805 83.913 19.6693 84.5657 19.6982H87.8225V19.9264C87.867 20.9168 87.5333 21.887 86.8891 22.6405C86.5576 22.9862 86.1551 23.2559 85.7093 23.4311C85.2635 23.6062 84.7851 23.6826 84.3069 23.655Z" fill="white"/>
<path fill-rule="evenodd" clip-rule="evenodd" d="M131.16 5.58032H133.458V26.0141H131.16V5.58032ZM94.3056 5.90501H91.7692L97.9734 26.0141H100.444L105.446 9.66912L110.417 26.0141H112.913L119.112 5.91516H116.576L111.604 22.321L106.531 5.91516H104.34L99.2669 22.321L94.3056 5.90501ZM117.782 23.6246C118.02 24.1743 118.38 24.6633 118.833 25.0553C119.865 25.8884 121.167 26.3128 122.491 26.2474C123.553 26.2671 124.602 26.0101 125.535 25.5017C126.366 25.0613 127.034 24.3662 127.442 23.5182V26.0141H129.745V16.6799C129.775 15.947 129.643 15.2166 129.357 14.5412C129.071 13.8657 128.639 13.2621 128.091 12.7737C126.989 11.7964 125.499 11.3077 123.622 11.3077C122.597 11.2969 121.582 11.5116 120.649 11.9367C119.781 12.327 119.021 12.9245 118.438 13.6767C117.879 14.3923 117.543 15.2571 117.474 16.1625H119.66C119.694 15.752 119.82 15.3544 120.028 14.9989C120.236 14.6434 120.521 14.3389 120.862 14.1079C121.645 13.5333 122.596 13.2352 123.566 13.2607C124.592 13.1995 125.605 13.5213 126.407 14.1637C126.747 14.467 127.015 14.8427 127.191 15.2633C127.366 15.6839 127.445 16.1385 127.422 16.5937C127.426 16.6976 127.407 16.8011 127.368 16.8973C127.328 16.9935 127.269 17.0803 127.193 17.1517C127 17.3112 126.753 17.3895 126.503 17.3698H123.231C121.731 17.2898 120.247 17.7188 119.021 18.5873C118.515 18.9705 118.109 19.4695 117.836 20.0424C117.563 20.6154 117.432 21.2454 117.453 21.8796C117.431 22.4786 117.543 23.0749 117.782 23.6246ZM122.826 24.2944C122.039 24.3342 121.262 24.0993 120.629 23.6298C120.359 23.4202 120.143 23.1494 119.998 22.8398C119.854 22.5302 119.785 22.1907 119.797 21.8492C119.784 21.4636 119.864 21.0805 120.032 20.7331C120.2 20.3857 120.45 20.0845 120.761 19.8555C121.523 19.3291 122.438 19.0704 123.363 19.12H127.422V19.4954C127.496 20.7817 127.062 22.0458 126.214 23.016C125.771 23.4558 125.241 23.7971 124.657 24.0174C124.073 24.2377 123.449 24.3321 122.826 24.2944ZM137.07 5.58032H134.772V26.0141H137.07V5.58032ZM141.819 25.2277C140.743 24.5558 139.867 23.6081 139.282 22.4833C138.674 21.3117 138.364 20.0085 138.379 18.6887C138.355 17.3712 138.646 16.067 139.226 14.8841C139.759 13.7967 140.591 12.8848 141.626 12.2563C142.728 11.6036 143.992 11.2749 145.273 11.3076C146.529 11.2731 147.772 11.5724 148.875 12.1751C149.872 12.7431 150.684 13.5868 151.214 14.605C151.771 15.6775 152.053 16.8715 152.035 18.08C152.039 18.419 152.02 18.7579 151.98 19.0946H140.657C140.7 20.4576 141.229 21.7604 142.148 22.7674C142.579 23.2351 143.105 23.6056 143.69 23.854C144.275 24.1024 144.907 24.2232 145.542 24.2081C146.546 24.2512 147.54 23.9951 148.398 23.4725C149.138 22.9848 149.659 22.2277 149.849 21.3622H152.188C152.082 22.0686 151.835 22.7467 151.463 23.3565C151.091 23.9664 150.601 24.4956 150.022 24.9132C148.715 25.8284 147.146 26.2932 145.552 26.2373C144.237 26.2659 142.941 25.9155 141.819 25.2277ZM149.677 17.248C149.637 16.1434 149.169 15.0975 148.373 14.3311C147.508 13.6465 146.439 13.2707 145.336 13.2633C144.233 13.256 143.159 13.6175 142.285 14.2905C141.445 15.065 140.909 16.1137 140.774 17.248H149.677ZM157.357 11.5359V6.90943H155.074V11.5461H152.03V13.5753H155.074V21.4687C155.024 22.0774 155.107 22.6896 155.318 23.2629C155.528 23.8362 155.861 24.3567 156.293 24.7883C156.726 25.2199 157.246 25.5522 157.82 25.7622C158.393 25.9721 159.006 26.0546 159.614 26.0039H161.826V23.9747H159.701C159.386 23.9899 159.071 23.9376 158.778 23.8212C158.485 23.7049 158.22 23.5272 158.001 23.3C157.555 22.7785 157.329 22.1033 157.372 21.418V13.5651H161.826V11.5359H157.357Z" fill="#0098FF"/>
</g>
<defs>
<clipPath id="clip0_2210_2999">
<rect width="161.811" height="32" fill="white"/>
</clipPath>
</defs>
</svg>
